<?xml version="1.0" encoding="UTF-8"?>
<svg width="451.1" height="72.068" viewBox="0 0 225.34 36" xmlns="http://www.w3.org/2000/svg">
<g transform="matrix(1.2857 0 0 1.2857 -3.0857 -15.429)" fill="#111">
<path d="m5.2 40c-0.52 0-1 0-1.52-0.12-0.28-0.08-0.56-0.2-0.76-0.4-0.24-0.24-0.4-0.52-0.44-0.84-0.04-0.24-0.08-0.44-0.08-0.68v-1.16-10.84-10.8-1.28c0.04-0.24 0.04-0.52 0.12-0.76 0.12-0.44 0.44-0.8 0.88-0.96 0.2-0.04 0.44-0.08 0.64-0.12 0.32-0.04 0.6-0.04 0.88-0.04h7.64c1.8 0 3.52 0.28 5.24 0.76 1.92 0.52 3.6 1.4 5.04 2.76 1.04 1 1.84 2.16 2.4 3.48 0.6 1.32 0.96 2.76 1.12 4.2 0.16 0.96 0.28 1.92 0.24 2.88-0.04 1.4-0.2 2.76-0.52 4.12-0.44 1.8-1.2 3.48-2.32 4.92-1 1.32-2.2 2.36-3.64 3.16-1.76 0.96-3.64 1.44-5.64 1.6-1.32 0.12-2.64 0.12-3.96 0.12h-5.32zm6.64-5.64c0.32 0.04 0.64 0 0.96-0.08 2.28-0.44 3.88-1.76 4.84-3.88 0.56-1.12 0.8-2.36 0.88-3.64v-1.92c-0.04-0.96-0.2-1.92-0.48-2.84-0.2-0.76-0.52-1.44-0.96-2.08-0.4-0.56-0.84-1-1.4-1.36-0.88-0.6-1.92-0.92-3-0.96-0.32-0.04-0.68 0-1.04 0.04-0.32 0-0.6 0.16-0.84 0.4-0.32 0.28-0.52 0.68-0.56 1.08-0.04 0.44-0.04 0.84-0.08 1.28v5.6 3.36c0 0.84 0 1.68 0.04 2.52 0 0.32 0 0.64 0.04 0.96 0.12 0.92 0.68 1.44 1.6 1.52zm21.589 5.64c-0.52 0-1 0-1.52-0.12-0.28-0.08-0.56-0.2-0.76-0.4-0.24-0.24-0.4-0.52-0.44-0.84-0.04-0.24-0.08-0.44-0.08-0.68v-1.16-10.84-10.8-1.28c0.04-0.24 0.04-0.52 0.12-0.76 0.12-0.44 0.44-0.8 0.88-0.96 0.2-0.04 0.44-0.08 0.64-0.12 0.32-0.04 0.6-0.04 0.88-0.04h7.64c1.8 0 3.52 0.28 5.24 0.76 1.92 0.52 3.6 1.4 5.04 2.76 1.04 1 1.84 2.16 2.4 3.48 0.6 1.32 0.96 2.76 1.12 4.2 0.16 0.96 0.28 1.92 0.24 2.88-0.04 1.4-0.2 2.76-0.52 4.12-0.44 1.8-1.2 3.48-2.32 4.92-1 1.32-2.2 2.36-3.64 3.16-1.76 0.96-3.64 1.44-5.64 1.6-1.32 0.12-2.64 0.12-3.96 0.12h-5.32zm6.64-5.64c0.32 0.04 0.64 0 0.96-0.08 2.28-0.44 3.88-1.76 4.84-3.88 0.56-1.12 0.8-2.36 0.88-3.64v-1.92c-0.04-0.96-0.2-1.92-0.48-2.84-0.2-0.76-0.52-1.44-0.96-2.08-0.4-0.56-0.84-1-1.4-1.36-0.88-0.6-1.92-0.92-3-0.96-0.32-0.04-0.68 0-1.04 0.04-0.32 0-0.6 0.16-0.84 0.4-0.32 0.28-0.52 0.68-0.56 1.08-0.04 0.44-0.04 0.84-0.08 1.28v5.6 3.36c0 0.84 0 1.68 0.04 2.52 0 0.32 0 0.64 0.04 0.96 0.12 0.92 0.68 1.44 1.6 1.52zm21.589 5.64c-0.52 0-1 0-1.52-0.12-0.28-0.08-0.56-0.2-0.76-0.4-0.24-0.24-0.4-0.52-0.44-0.84-0.04-0.24-0.08-0.44-0.08-0.68v-1.16-10.84-10.8-1.28c0.04-0.24 0.04-0.52 0.12-0.76 0.12-0.44 0.44-0.8 0.88-0.96 0.2-0.04 0.44-0.08 0.64-0.12 0.32-0.04 0.6-0.04 0.88-0.04h7.64c1.8 0 3.52 0.28 5.24 0.76 1.92 0.52 3.6 1.4 5.04 2.76 1.04 1 1.84 2.16 2.4 3.48 0.6 1.32 0.96 2.76 1.12 4.2 0.16 0.96 0.28 1.92 0.24 2.88-0.04 1.4-0.2 2.76-0.52 4.12-0.44 1.8-1.2 3.48-2.32 4.92-1 1.32-2.2 2.36-3.64 3.16-1.76 0.96-3.64 1.44-5.64 1.6-1.32 0.12-2.64 0.12-3.96 0.12h-5.32zm6.64-5.64c0.32 0.04 0.64 0 0.96-0.08 2.28-0.44 3.88-1.76 4.84-3.88 0.56-1.12 0.8-2.36 0.88-3.64v-1.92c-0.04-0.96-0.2-1.92-0.48-2.84-0.2-0.76-0.52-1.44-0.96-2.08-0.4-0.56-0.84-1-1.4-1.36-0.88-0.6-1.92-0.92-3-0.96-0.32-0.04-0.68 0-1.04 0.04-0.32 0-0.6 0.16-0.84 0.4-0.32 0.28-0.52 0.68-0.56 1.08-0.04 0.44-0.04 0.84-0.08 1.28v5.6 3.36c0 0.84 0 1.68 0.04 2.52 0 0.32 0 0.64 0.04 0.96 0.12 0.92 0.68 1.44 1.6 1.52zm20.829 5.6c-0.32-0.04-0.64-0.08-0.96-0.2-0.48-0.12-0.76-0.44-0.88-0.92-0.08-0.36-0.12-0.76-0.16-1.16-0.04-0.24-0.04-0.52-0.04-0.76v-22.04c0-0.28 0-0.56 0.04-0.88 0-0.28 0.08-0.56 0.12-0.84 0.12-0.52 0.48-0.84 0.96-1l0.48-0.12c0.16 0 0.32-0.04 0.48-0.04h5.2c0.24 0 0.48 0.04 0.68 0.08 0.6 0.12 1 0.44 1.28 0.96 0.2 0.32 0.36 0.68 0.48 1.04 0.28 0.88 0.56 1.8 0.84 2.68 0.48 1.48 0.92 3 1.4 4.52 0.32 0.96 0.6 1.96 0.92 2.96 0.12 0.36 0.28 0.72 0.44 1.08 0.08 0.24 0.24 0.44 0.48 0.6 0.24 0.2 0.6 0.2 0.88 0 0.16-0.12 0.28-0.28 0.36-0.48l0.24-0.6c0.28-0.8 0.56-1.6 0.8-2.4 0.64-2.08 1.32-4.16 1.96-6.28 0.2-0.6 0.36-1.2 0.56-1.84 0.12-0.28 0.2-0.6 0.32-0.92 0.12-0.2 0.24-0.4 0.36-0.56 0.36-0.44 0.84-0.72 1.4-0.8 0.2 0 0.4-0.04 0.56-0.04h4.96c0.28 0 0.56 0.04 0.84 0.12 0.72 0.16 1.16 0.64 1.28 1.4 0.04 0.2 0.04 0.44 0.04 0.64v1.16 10.64 10.84 1.24c0 0.32-0.04 0.6-0.16 0.88-0.16 0.44-0.48 0.76-0.96 0.88-0.32 0.08-0.68 0.16-1.04 0.16-0.88 0.04-1.8 0-2.68 0-0.28 0-0.6-0.08-0.88-0.12-0.32-0.04-0.6-0.24-0.8-0.48-0.2-0.2-0.32-0.4-0.36-0.68-0.04-0.2-0.08-0.44-0.08-0.64v-1.16-5.72c0-0.88-0.12-1.72-0.2-2.6-0.04-0.24-0.08-0.52-0.2-0.72-0.2-0.28-0.44-0.32-0.68-0.12-0.08 0.08-0.2 0.16-0.28 0.28-0.04 0.08-0.12 0.2-0.16 0.32-0.24 0.56-0.48 1.12-0.68 1.72-0.32 0.92-0.6 1.84-0.92 2.76-0.16 0.52-0.36 1.08-0.52 1.64-0.12 0.32-0.24 0.6-0.4 0.88-0.2 0.4-0.52 0.64-0.96 0.8-0.28 0.12-0.6 0.2-0.92 0.2h-2.52c-0.2 0-0.4-0.04-0.56-0.08-0.68-0.12-1.12-0.48-1.44-1.08-0.16-0.32-0.32-0.68-0.44-1.04-0.28-0.84-0.56-1.64-0.84-2.48-0.28-0.92-0.6-1.84-1-2.72-0.08-0.16-0.16-0.36-0.28-0.52-0.08-0.12-0.2-0.24-0.32-0.36-0.2-0.16-0.56-0.08-0.68 0.16-0.04 0.08-0.08 0.2-0.12 0.32-0.12 0.4-0.16 0.76-0.16 1.16-0.04 0.72-0.04 1.44-0.04 2.12 0 1.72 0 3.44-0.04 5.12 0 0.48-0.04 0.92-0.08 1.36 0 0.2-0.04 0.4-0.08 0.56-0.16 0.48-0.44 0.8-0.92 0.92-0.28 0.12-0.6 0.16-0.92 0.2-1 0.04-2 0.04-3 0zm34.389 0.04c-0.32 0-0.64-0.08-0.96-0.12-0.16 0-0.32-0.04-0.44-0.12-0.4-0.12-0.68-0.4-0.8-0.8-0.12-0.28-0.2-0.6-0.2-0.92-0.04-0.32-0.04-0.64-0.04-0.96v-22.24c0-0.44 0-0.92 0.08-1.36 0.12-0.84 0.64-1.32 1.48-1.44 0.24 0 0.52-0.04 0.76-0.04h3.28c0.2 0 0.4 0 0.6 0.04 0.16 0.04 0.36 0.08 0.56 0.12 0.48 0.16 0.8 0.52 0.96 1 0.08 0.36 0.12 0.72 0.12 1.08 0 0.32 0.04 0.68 0.04 1.04v10.72 10.76c0 0.36-0.04 0.68-0.04 1.04s-0.04 0.72-0.16 1.08c-0.12 0.4-0.4 0.72-0.8 0.88-0.16 0.04-0.32 0.12-0.48 0.12-0.32 0.04-0.64 0.12-0.96 0.12h-3z"/>
</g>
<g transform="matrix(.39212 0 0 .39212 161.94 -1.6053)" fill="#024598">
<path d="m83.764 69.013c0 3.451-0.812 6.854-2.42 10.239-1.607 3.366-3.857 6.226-6.752 8.562-3.164 2.537-6.869 4.517-11.086 5.938-4.229 1.439-9.305 2.151-15.264 2.151-3.92 0-7.68-0.979-11.342-2.312-2.011-0.733-4.082-1.39-5.962-2.43-1.132-0.626-2.191-1.398-3.251-2.141-2.992-2.095-5.667-4.637-7.995-7.447-0.79-0.955-1.524-1.95-2.205-2.983-0.355-0.537-0.696-1.084-1.028-1.635-0.225-0.371-0.995-1.26-0.995-1.684v-1.202h0.828c4.485 3.725 9.662 6.603 15.536 8.614 5.872 2.031 11.373 3.047 16.533 3.047 7.293 0 12.981-1.37 17.042-4.113 4.061-2.741 6.107-6.378 6.107-10.948 0-3.926-0.963-6.82-2.893-8.682-1.928-1.861-4.838-3.317-8.766-4.35-2.979-0.795-6.209-1.437-9.679-1.963-3.47-0.507-7.142-1.167-11.035-1.964-7.852-1.657-13.672-4.5-17.463-8.526-3.791-4.029-5.67-9.275-5.67-15.74 0-7.412 3.132-13.487 9.394-18.243 6.26-4.737 14.214-7.107 23.86-7.107 3.615 0 7.23 0.2 10.814 0.663 2.973 0.382 6.145 0.832 8.932 1.986 3.834 1.589 6.51 5.1 6.162 9.366-0.016 0.203-0.031 0.407-0.066 0.61l-0.627 4.111-0.625 4.08c0.66 0.854 1.316 1.711 1.98 2.562 0.521 0.667 1.047 1.334 1.564 2.005 0.438 0.569 0.854 1.524 1.51 1.873 1.002 0.531 2.688 0.323 3.795 0.481 0.475 0.068 0.795 0.491 0.729 0.948-0.051 0.474-0.475 0.795-0.949 0.745l-0.846-0.103c-0.779-0.155-1.699-0.306-2.498-0.308-0.316 1.041-0.346 2.24-0.461 3.321-0.053 0.473-0.475 0.794-0.949 0.728-0.459-0.052-0.795-0.475-0.729-0.948 0.135-1.041 0.771-2.909 0.426-3.908-0.275-0.79-1.07-1.397-1.58-2.036-0.566-0.716-1.113-1.453-1.67-2.179-0.307-0.407-1.564-2.63-2.084-2.708 0 0-7.256-1.1-7.258-1.1-2.154-0.327-3.941-1.38-5.406-2.973-1.473-1.602-1.879-3.546-2.197-5.628-0.189-1.263-1.723-1.135-2.688-1.239-1.777-0.194-3.561-0.178-5.346-0.178-6.297 0-11.374 1.321-15.198 3.943-3.825 2.606-5.736 5.974-5.736 10.103 0 3.689 0.948 6.583 2.86 8.683 1.895 2.115 5.246 3.723 10.052 4.823 2.538 0.559 6.143 1.234 10.813 2.031 4.688 0.794 8.648 1.606 11.914 2.436 6.584 1.744 11.541 4.383 14.857 7.903 3.335 3.538 5.011 8.479 5.011 14.826z" xmlns="http://www.w3.org/2000/svg"/>
<path d="m83.764 69.013c0 3.451-0.812 6.854-2.42 10.239-1.607 3.366-3.857 6.226-6.752 8.562-3.164 2.537-6.869 4.517-11.086 5.938-4.229 1.439-9.305 2.151-15.264 2.151-3.92 0-7.68-0.979-11.342-2.312-2.011-0.733-4.082-1.39-5.962-2.43-1.132-0.626-2.191-1.398-3.251-2.141-2.992-2.095-5.667-4.637-7.995-7.447-0.79-0.955-1.524-1.95-2.205-2.983-0.355-0.537-0.696-1.084-1.028-1.635-0.225-0.371-0.995-1.26-0.995-1.684v-1.202h0.828c4.485 3.725 9.662 6.603 15.536 8.614 5.872 2.031 11.373 3.047 16.533 3.047 7.293 0 12.981-1.37 17.042-4.113 4.061-2.741 6.107-6.378 6.107-10.948 0-3.926-0.963-6.82-2.893-8.682-1.928-1.861-4.838-3.317-8.766-4.35-2.979-0.795-6.209-1.437-9.679-1.963-3.47-0.507-7.142-1.167-11.035-1.964-7.852-1.657-13.672-4.5-17.463-8.526-3.791-4.029-5.67-9.275-5.67-15.74 0-7.412 3.132-13.487 9.394-18.243 6.26-4.737 14.214-7.107 23.86-7.107 3.615 0 7.23 0.2 10.814 0.663 2.973 0.382 6.145 0.832 8.932 1.986 3.834 1.589 6.51 5.1 6.162 9.366-0.016 0.203-0.031 0.407-0.066 0.61l-0.627 4.111-0.625 4.08c0.66 0.854 1.316 1.711 1.98 2.562 0.521 0.667 1.047 1.334 1.564 2.005 0.438 0.569 0.854 1.524 1.51 1.873 1.002 0.531 2.688 0.323 3.795 0.481 0.475 0.068 0.795 0.491 0.729 0.948-0.051 0.474-0.475 0.795-0.949 0.745l-0.846-0.103c-0.779-0.155-1.699-0.306-2.498-0.308-0.316 1.041-0.346 2.24-0.461 3.321-0.053 0.473-0.475 0.794-0.949 0.728-0.459-0.052-0.795-0.475-0.729-0.948 0.135-1.041 0.771-2.909 0.426-3.908-0.275-0.79-1.07-1.397-1.58-2.036-0.566-0.716-1.113-1.453-1.67-2.179-0.307-0.407-1.564-2.63-2.084-2.708 0 0-7.256-1.1-7.258-1.1-2.154-0.327-3.941-1.38-5.406-2.973-1.473-1.602-1.879-3.546-2.197-5.628-0.189-1.263-1.723-1.135-2.688-1.239-1.777-0.194-3.561-0.178-5.346-0.178-6.297 0-11.374 1.321-15.198 3.943-3.825 2.606-5.736 5.974-5.736 10.103 0 3.689 0.948 6.583 2.86 8.683 1.895 2.115 5.246 3.723 10.052 4.823 2.538 0.559 6.143 1.234 10.813 2.031 4.688 0.794 8.648 1.606 11.914 2.436 6.584 1.744 11.541 4.383 14.857 7.903 3.335 3.538 5.011 8.479 5.011 14.826z" xmlns="http://www.w3.org/2000/svg"/>
</g>
<g transform="matrix(1.2359 0 0 1.2359 199.01 -14.13)" fill="#111">
<path d="m13.886 40.56c-1.12-0.12-2.24-0.16-3.36-0.4-1.4-0.28-2.72-0.76-3.96-1.52-1.76-1.04-3.08-2.48-4.04-4.32-0.64-1.16-1.04-2.4-1.28-3.72-0.32-1.48-0.48-3-0.44-4.44-0.04-1.48 0.12-2.88 0.4-4.28 0.4-1.96 1.12-3.76 2.24-5.4 0.88-1.28 1.96-2.32 3.24-3.12 1.24-0.8 2.6-1.32 4.04-1.6 1.08-0.24 2.16-0.36 3.24-0.32 0.24 0.04 0.48 0.04 0.68 0.04 1.52 0.2 3 0.48 4.44 0.96 0.24 0.08 0.48 0.2 0.72 0.28s0.44 0.24 0.64 0.44c0.32 0.32 0.48 0.68 0.4 1.12-0.04 0.28-0.08 0.6-0.2 0.84-0.24 0.68-0.52 1.32-0.76 2-0.04 0.04-0.04 0.12-0.08 0.16-0.44 0.8-0.96 1-1.76 0.84-0.44-0.08-0.88-0.24-1.28-0.4-0.76-0.28-1.56-0.48-2.36-0.6-0.52-0.08-1.08-0.04-1.6 0.08-1.12 0.28-1.96 0.96-2.6 1.92-0.52 0.8-0.84 1.72-1.04 2.68-0.12 0.48-0.16 1-0.24 1.52-0.08 0.88-0.2 1.72-0.16 2.6 0.08 1.52 0.2 3.04 0.64 4.48 0.2 0.72 0.44 1.4 0.8 2.08 0.36 0.56 0.8 1.08 1.32 1.52 0.64 0.48 1.36 0.76 2.16 0.84 0.8 0.04 1.6 0.04 2.4-0.16 0.48-0.16 0.96-0.28 1.48-0.44 0.28-0.08 0.52-0.2 0.8-0.24 0.2-0.08 0.4-0.08 0.6-0.08 0.32 0 0.6 0.12 0.88 0.36 0.16 0.16 0.32 0.36 0.44 0.6 0.36 0.76 0.64 1.56 0.88 2.36 0.12 0.28 0.16 0.6 0.12 0.92 0 0.32-0.12 0.56-0.36 0.8-0.16 0.16-0.32 0.28-0.52 0.36-0.32 0.12-0.6 0.28-0.92 0.36-1.64 0.44-3.32 0.76-5.04 0.88h-0.56z"/>
</g>
</svg>
