<svg width="396" height="74" viewBox="0 0 396 74" fill="none" xmlns="http://www.w3.org/2000/svg">
<path d="M296.954 73C296.305 73 295.655 72.86 295.005 72.79C294.68 72.79 294.355 72.72 294.112 72.58C293.299 72.37 292.731 71.88 292.487 71.18C292.244 70.69 292.081 70.13 292.081 69.57C292 69.01 292 68.45 292 67.89V28.97C292 28.2 292 27.36 292.162 26.59C292.406 25.12 293.462 24.28 295.168 24.07C295.655 24.07 296.223 24 296.711 24H303.371C303.777 24 304 24 304.589 24.07C304.961 24.1143 305.311 24.1608 305.726 24.28C306.701 24.56 307.35 25.19 307.675 26.03C307.838 26.66 307.919 27.29 307.919 27.92C307.919 28.48 308 29.11 308 29.74V67.33C308 67.96 307.919 68.52 307.919 69.15C307.919 69.78 307.838 70.41 307.594 71.04C307.35 71.74 306.782 72.3 305.97 72.58C305.645 72.65 305.32 72.79 304.995 72.79C304.345 72.86 303.695 73 303.046 73H296.954Z" fill="#CDA4E0"/>
<path d="M292 4C292 2.34315 293.343 1 295 1H305C306.657 1 308 2.34315 308 4V14C308 15.6569 306.657 17 305 17H295C293.343 17 292 15.6569 292 14V4Z" fill="#CDA4E0"/>
<path d="M296.954 73C296.305 73 295.655 72.86 295.005 72.79C294.68 72.79 294.355 72.72 294.112 72.58C293.299 72.37 292.731 71.88 292.487 71.18C292.244 70.69 292.081 70.13 292.081 69.57C292 69.01 292 68.45 292 67.89V28.97C292 28.2 292 27.36 292.162 26.59C292.406 25.12 293.462 24.28 295.168 24.07C295.655 24.07 296.223 24 296.711 24H303.371C303.777 24 304 24 304.589 24.07C304.961 24.1143 305.311 24.1608 305.726 24.28C306.701 24.56 307.35 25.19 307.675 26.03C307.838 26.66 307.919 27.29 307.919 27.92C307.919 28.48 308 29.11 308 29.74V67.33C308 67.96 307.919 68.52 307.919 69.15C307.919 69.78 307.838 70.41 307.594 71.04C307.35 71.74 306.782 72.3 305.97 72.58C305.645 72.65 305.32 72.79 304.995 72.79C304.345 72.86 303.695 73 303.046 73H296.954Z" stroke="#555555"/>
<path d="M292 4C292 2.34315 293.343 1 295 1H305C306.657 1 308 2.34315 308 4V14C308 15.6569 306.657 17 305 17H295C293.343 17 292 15.6569 292 14V4Z" stroke="#555555"/>
<path d="M148.207 73.0663C146.868 73.0663 145.633 73.0663 144.294 72.7574C143.574 72.5515 142.853 72.2427 142.338 71.7279C141.721 71.1102 141.309 70.3896 141.206 69.5659C141.103 68.9482 141 68.4335 141 67.8158V64.8302V36.9302V9.1332V5.83874C141.103 5.22103 141.103 4.50036 141.309 3.88265C141.618 2.75018 142.441 1.82361 143.574 1.41181C144.089 1.30886 144.706 1.2059 145.221 1.10295C146.045 1 146.765 1 147.486 1H167.15C171.783 1 176.21 1.72066 180.636 2.95609C185.578 4.29446 189.902 6.5594 193.608 10.0598C196.285 12.6336 198.344 15.6192 199.786 19.0166C201.33 22.414 202.256 26.1203 202.668 29.8265C203.08 32.2974 203.389 34.7682 203.286 37.2391C203.183 40.8424 202.771 44.3427 201.947 47.8431C200.815 52.4759 198.859 56.7999 195.976 60.5062C193.402 63.9036 190.314 66.5803 186.608 68.6394C182.078 71.1102 177.239 72.3456 172.091 72.7574C168.694 73.0663 165.297 73.0663 161.899 73.0663H148.207ZM165.297 58.5501C166.12 58.653 166.944 58.5501 167.767 58.3442C173.636 57.2117 177.754 53.8143 180.225 48.3579C181.666 45.4752 182.284 42.2837 182.49 38.9892V34.0475C182.387 31.5767 181.975 29.1059 181.254 26.738C180.739 24.7819 179.916 23.0317 178.783 21.3845C177.754 19.9431 176.621 18.8107 175.18 17.8841C172.915 16.3398 170.238 15.5162 167.459 15.4133C166.635 15.3103 165.708 15.4133 164.782 15.5162C163.958 15.5162 163.238 15.928 162.62 16.5457C161.796 17.2664 161.282 18.2959 161.179 19.3254C161.076 20.4579 161.076 21.4874 160.973 22.6199V37.0331V45.6811C160.973 47.8431 160.973 50.0051 161.076 52.1671C161.076 52.9907 161.076 53.8143 161.179 54.6379C161.487 57.0058 162.929 58.3442 165.297 58.5501Z" fill="#8CC63E" stroke="#555555"/>
<path d="M78.2066 73.0663C76.8683 73.0663 75.6328 73.0663 74.2945 72.7574C73.5738 72.5515 72.8531 72.2427 72.3384 71.7279C71.7207 71.1102 71.3089 70.3896 71.2059 69.5659C71.103 68.9482 71 68.4335 71 67.8158V64.8302V36.9302V9.1332V5.83874C71.103 5.22103 71.103 4.50036 71.3089 3.88265C71.6177 2.75018 72.4413 1.82361 73.5738 1.41181C74.0886 1.30886 74.7063 1.2059 75.221 1.10295C76.0446 1 76.7653 1 77.486 1H97.1498C101.783 1 106.21 1.72066 110.636 2.95609C115.578 4.29446 119.902 6.5594 123.608 10.0598C126.285 12.6336 128.344 15.6192 129.786 19.0166C131.33 22.414 132.256 26.1203 132.668 29.8265C133.08 32.2974 133.389 34.7682 133.286 37.2391C133.183 40.8424 132.771 44.3427 131.948 47.8431C130.815 52.4759 128.859 56.7999 125.976 60.5062C123.402 63.9036 120.314 66.5803 116.608 68.6394C112.078 71.1102 107.239 72.3456 102.091 72.7574C98.6941 73.0663 95.2966 73.0663 91.8992 73.0663H78.2066ZM95.2966 58.5501C96.1203 58.653 96.9439 58.5501 97.7675 58.3442C103.636 57.2117 107.754 53.8143 110.225 48.3579C111.666 45.4752 112.284 42.2837 112.49 38.9892V34.0475C112.387 31.5767 111.975 29.1059 111.254 26.738C110.739 24.7819 109.916 23.0317 108.783 21.3845C107.754 19.9431 106.621 18.8107 105.18 17.8841C102.915 16.3398 100.238 15.5162 97.4586 15.4133C96.635 15.3103 95.7084 15.4133 94.7819 15.5162C93.9583 15.5162 93.2376 15.928 92.6199 16.5457C91.7963 17.2664 91.2815 18.2959 91.1786 19.3254C91.0756 20.4579 91.0756 21.4874 90.9727 22.6199V37.0332V45.6811C90.9727 47.8431 90.9727 50.0051 91.0756 52.1671C91.0756 52.9907 91.0756 53.8143 91.1786 54.6379C91.4874 57.0058 92.9287 58.3442 95.2966 58.5501Z" fill="#27A9E1" stroke="#555555"/>
<path d="M8.20663 73.0663C6.86825 73.0663 5.63283 73.0663 4.29446 72.7574C3.5738 72.5515 2.85313 72.2427 2.33837 71.7279C1.72066 71.1102 1.30886 70.3896 1.2059 69.5659C1.10295 68.9482 1 68.4335 1 67.8158V64.8302V36.9302V9.1332V5.83874C1.10295 5.22103 1.10295 4.50036 1.30886 3.88265C1.61771 2.75018 2.44133 1.82361 3.5738 1.41181C4.08856 1.30886 4.70627 1.2059 5.22103 1.10295C6.04464 1 6.7653 1 7.48597 1H27.1498C31.7826 1 36.2095 1.72066 40.6365 2.95609C45.5782 4.29446 49.9021 6.5594 53.6084 10.0598C56.2851 12.6336 58.3442 15.6192 59.7855 19.0166C61.3298 22.414 62.2564 26.1203 62.6682 29.8265C63.08 32.2974 63.3888 34.7682 63.2859 37.2391C63.1829 40.8424 62.7711 44.3427 61.9475 47.8431C60.815 52.4759 58.8589 56.7999 55.9763 60.5062C53.4025 63.9036 50.3139 66.5803 46.6077 68.6394C42.0778 71.1102 37.2391 72.3456 32.0915 72.7574C28.694 73.0663 25.2966 73.0663 21.8992 73.0663H8.20663ZM25.2966 58.5501C26.1203 58.653 26.9439 58.5501 27.7675 58.3442C33.6357 57.2117 37.7538 53.8143 40.2247 48.3579C41.666 45.4752 42.2837 42.2837 42.4896 38.9892V34.0475C42.3866 31.5767 41.9748 29.1059 41.2542 26.738C40.7394 24.7819 39.9158 23.0317 38.7833 21.3845C37.7538 19.9431 36.6213 18.8107 35.18 17.8841C32.9151 16.3398 30.2383 15.5162 27.4586 15.4133C26.635 15.3103 25.7084 15.4133 24.7819 15.5162C23.9583 15.5162 23.2376 15.928 22.6199 16.5457C21.7963 17.2664 21.2815 18.2959 21.1786 19.3254C21.0756 20.4579 21.0756 21.4874 20.9727 22.6199V37.0331V45.6811C20.9727 47.8431 20.9727 50.0051 21.0756 52.1671C21.0756 52.9907 21.0756 53.8143 21.1786 54.6379C21.4874 57.0058 22.9287 58.3442 25.2966 58.5501Z" fill="#CDA4E0" stroke="#555555"/>
<path d="M216.251 72.9633C215.427 72.8604 214.603 72.7574 213.78 72.4486C212.544 72.1397 211.824 71.3161 211.515 70.0807C211.309 69.1541 211.206 68.1246 211.103 67.0951C211 66.4774 211 65.7567 211 65.139V8.41253C211 7.69187 211 6.97121 211.103 6.14759C211.103 5.42693 211.309 4.70627 211.412 3.9856C211.721 2.64723 212.647 1.82361 213.883 1.41181L215.118 1.10295C215.53 1.10295 215.942 1 216.353 1H229.737C230.355 1 230.973 1.10295 231.487 1.2059C233.032 1.51476 234.061 2.33837 234.782 3.67675C235.297 4.50036 235.708 5.42693 236.017 6.3535C236.738 8.61844 237.459 10.9863 238.179 13.2513C239.415 17.0605 240.547 20.9727 241.783 24.8848C242.606 27.3557 243.327 29.9295 244.15 32.5033C244.459 33.4298 244.871 34.3564 245.283 35.283C245.489 35.9007 245.901 36.4154 246.518 36.8272C247.136 37.342 248.063 37.342 248.783 36.8272C249.195 36.5184 249.504 36.1066 249.71 35.5918L250.328 34.0475C251.048 31.9885 251.769 29.9295 252.387 27.8704C254.034 22.5169 255.784 17.1634 257.431 11.707C257.946 10.1627 258.358 8.61844 258.873 6.97121C259.181 6.25054 259.387 5.42693 259.696 4.60331C260.005 4.08855 260.314 3.5738 260.623 3.16199C261.549 2.02952 262.785 1.30886 264.226 1.10295C264.741 1.10295 265.256 1 265.667 1H278.433C279.154 1 279.875 1.10295 280.595 1.30886C282.449 1.72066 283.581 2.95609 283.89 4.91217C283.993 5.42693 283.993 6.04464 283.993 6.5594V9.545V36.9302V64.8302V68.0217C283.993 68.8453 283.89 69.5659 283.581 70.2866C283.169 71.4191 282.346 72.2427 281.11 72.5515C280.287 72.7574 279.36 72.9633 278.433 72.9633C276.169 73.0663 273.801 72.9633 271.536 72.9633C270.815 72.9633 269.991 72.7574 269.271 72.6545C268.447 72.5515 267.726 72.0368 267.212 71.4191C266.697 70.9043 266.388 70.3896 266.285 69.6689C266.182 69.1541 266.079 68.5364 266.079 68.0217V65.036V50.3139C266.079 48.049 265.77 45.887 265.564 43.6221C265.462 43.0044 265.359 42.2837 265.05 41.7689C264.535 41.0483 263.917 40.9453 263.3 41.4601C263.094 41.666 262.785 41.8719 262.579 42.1807C262.476 42.3866 262.27 42.6955 262.167 43.0044C261.549 44.4457 260.932 45.887 260.417 47.4313C259.593 49.7992 258.873 52.1671 258.049 54.535C257.637 55.8733 257.122 57.3147 256.711 58.756C256.402 59.5796 256.093 60.3003 255.681 61.0209C255.166 62.0505 254.343 62.6682 253.21 63.08C252.49 63.3888 251.666 63.5947 250.842 63.5947H244.356C243.842 63.5947 243.327 63.4918 242.915 63.3888C241.165 63.08 240.032 62.1534 239.209 60.6091C238.797 59.7855 238.385 58.8589 238.076 57.9324C237.356 55.7704 236.635 53.7114 235.914 51.5494C235.194 49.1815 234.37 46.8136 233.341 44.5486C233.135 44.1368 232.929 43.6221 232.62 43.2103C232.414 42.9014 232.105 42.5926 231.796 42.2837C231.282 41.8719 230.355 42.0778 230.046 42.6955C229.943 42.9014 229.84 43.2103 229.737 43.5191C229.428 44.5486 229.325 45.4752 229.325 46.5047C229.222 48.3579 229.222 50.211 229.222 51.9612C229.222 56.3881 229.222 60.815 229.12 65.139C229.12 66.3744 229.017 67.5069 228.914 68.6394C228.914 69.1541 228.811 69.6689 228.708 70.0807C228.296 71.3161 227.575 72.1397 226.34 72.4486C225.619 72.7574 224.796 72.8604 223.972 72.9633C221.398 73.0663 218.824 73.0663 216.251 72.9633Z" fill="#FAA72B" stroke="#555555"/>
<path d="M353 58.6484C353 60.4902 352.56 62.3065 351.689 64.1131C350.818 65.9096 349.6 67.436 348.031 68.6828C346.317 70.0368 344.31 71.0936 342.026 71.852C339.735 72.62 336.985 73 333.757 73C331.633 73 329.596 72.4775 327.612 71.766C326.523 71.3748 325.401 71.0242 324.383 70.4691C323.769 70.135 323.196 69.723 322.622 69.3264C321.001 68.2083 319.552 66.8516 318.29 65.3518C317.862 64.8421 317.465 64.3111 317.096 63.7598C316.904 63.4732 316.719 63.1812 316.539 62.8871C316.417 62.6891 316 62.2147 316 61.9884V61.3468H316.449C319.707 63.1997 322.388 63.8408 325.36 64.7732C326.613 65.1661 329.731 66.0553 332.994 66.0553C335.152 66.0553 337.686 66.3985 340.307 65.1661C342.507 63.7032 343.348 62.6243 343.348 60.1852C343.348 58.0898 343.077 56.8992 342.032 55.9054C340.987 54.9122 340.093 53.992 337.965 53.4406C336.351 53.0163 334.769 52.864 332.789 52.3931C330.817 52.0234 327.921 51.7153 325.887 51.0991C322.313 49.7435 321.418 49.0792 319.364 46.9304C317.31 44.7801 316.293 40.9802 316.293 37.5297C316.293 33.5738 317.989 30.3315 321.382 27.7931C324.773 25.2649 329.082 24 334.307 24C336.265 24 338.224 24.1067 340.165 24.3539C341.776 24.5577 343.494 24.7979 345.004 25.4138C347.081 26.2619 348.531 28.1358 348.342 30.4126C348.334 30.521 348.325 30.6298 348.306 30.7382L347.967 32.9323L347.628 35.1098C347.986 35.5656 348.341 36.023 348.701 36.4772C348.983 36.8332 349.268 37.1892 349.548 37.5473C349.785 37.851 350.011 38.3607 350.366 38.547C350.909 38.8304 351.822 38.7194 352.422 38.8037C352.679 38.84 352.853 39.0658 352.817 39.3097C352.789 39.5626 352.56 39.734 352.303 39.7073L351.844 39.6523C351.422 39.5696 350.924 39.489 350.491 39.4879C350.32 40.0435 350.304 40.6834 350.242 41.2604C350.213 41.5128 349.984 41.6842 349.727 41.6489C349.479 41.6212 349.297 41.3954 349.333 41.143C349.406 40.5874 349.75 39.5904 349.563 39.0572C349.414 38.6356 348.984 38.3116 348.707 37.9706C348.401 37.5884 348.104 37.1951 347.803 36.8076C347.636 36.5904 346.955 35.4039 346.674 35.3623L342.742 34.7752C341.575 34.6007 340.607 34.0387 339.813 33.1885C339.015 32.3335 338.795 31.2959 338.623 30.1847C338.521 29.5106 337.69 29.5789 337.167 29.5234C335.783 29.3765 333.959 29.6873 333.247 29.8607C331.398 30.3111 330.561 31.0146 329.139 32.0301C327.147 33.7078 326.78 34.8089 326.151 36.9585C325.836 38.6363 326.466 41.7297 328.353 42.9356C330.241 43.8793 330.206 44.0263 332.81 44.6134C334.444 45.059 334.907 45.0874 337.528 45.6096C340.068 46.0333 340.468 46.0745 342.237 46.5175C345.804 47.4483 348.489 48.8568 350.285 50.7355C352.092 52.6238 353 55.2609 353 58.6484Z" fill="#27A9E1" stroke="#555555"/>
<path d="M382.703 73C380.845 72.7981 378.988 72.7308 377.13 72.3271C374.808 71.8561 372.619 71.0486 370.563 69.7701C367.644 68.0205 365.455 65.5981 363.863 62.5027C362.801 60.5513 362.138 58.4653 361.74 56.2447C361.209 53.755 360.944 51.198 361.01 48.7755C360.944 46.2858 361.209 43.9306 361.673 41.5755C362.337 38.2783 363.531 35.2502 365.388 32.4913C366.848 30.338 368.639 28.5885 370.762 27.2427C372.818 25.8969 375.074 25.0221 377.462 24.5511C379.253 24.1473 381.044 23.9455 382.835 24.0128C383.233 24.08 383.631 24.08 383.963 24.08C386.484 24.4165 388.938 24.8875 391.327 25.695C391.725 25.8296 392.123 26.0315 392.521 26.166C392.919 26.3006 393.25 26.5698 393.582 26.9062C394.113 27.4446 394.378 28.0502 394.245 28.7904C394.179 29.2614 394.113 29.7997 393.914 30.2034C393.516 31.3474 393.051 32.424 392.653 33.568C392.587 33.6352 392.587 33.7698 392.521 33.8371C391.791 35.1829 390.929 35.5194 389.602 35.2502C388.872 35.1156 388.142 34.8465 387.479 34.5773C386.219 34.1063 384.892 33.7698 383.565 33.568C382.703 33.4334 381.774 33.5007 380.911 33.7025C379.054 34.1736 377.661 35.3175 376.6 36.9325C375.737 38.2783 375.206 39.8259 374.875 41.4409C374.676 42.2484 374.609 43.1232 374.477 43.9979C374.344 45.4783 374.145 46.8914 374.211 48.3718C374.344 50.9288 374.543 53.4858 375.273 55.9083C375.604 57.1195 376.002 58.2635 376.6 59.4074C377.197 60.3494 377.926 61.2242 378.789 61.9644C379.85 62.7719 381.044 63.2429 382.371 63.3775C383.698 63.4448 385.024 63.4448 386.351 63.1083C387.147 62.8392 387.943 62.6373 388.806 62.3682C389.27 62.2336 389.668 62.0317 390.132 61.9644C390.464 61.8298 390.796 61.8298 391.128 61.8298C391.658 61.8298 392.123 62.0317 392.587 62.4354C392.852 62.7046 393.118 63.0411 393.317 63.4448C393.914 64.7233 394.378 66.0691 394.776 67.4149C394.975 67.8859 395.041 68.4243 394.975 68.9626C394.975 69.5009 394.776 69.9046 394.378 70.3084C394.113 70.5775 393.847 70.7794 393.516 70.914C392.985 71.1159 392.521 71.385 391.99 71.5196C389.27 72.2598 386.484 72.7981 383.631 73H382.703Z" fill="#8CC63E" stroke="#555555"/>
</svg>
